<?xml version="1.0" encoding="iso-8859-1"?>
<!-- Generator: Adobe Illustrator 19.0.0, SVG Export Plug-In . SVG Version: 6.00 Build 0)  -->
<svg version="1.1" id="Layer_1" xmlns="http://www.w3.org/2000/svg" xmlns:xlink="http://www.w3.org/1999/xlink" x="0px" y="0px"
	 viewBox="0 0 512 512" style="enable-background:new 0 0 512 512;" xml:space="preserve">
<path style="fill:#8C6748;" d="M336.614,361.348c-60.71,0-111.21-44.064-121.791-102.213h-2.045v184.541
	c0,8.903,7.276,16.185,16.169,16.185h215.337c8.893,0,16.169-7.283,16.169-16.185V259.135h-2.045
	C447.823,317.283,397.321,361.348,336.614,361.348z"/>
<path style="fill:#72563C;" d="M239.864,362.56c-4.328,0-7.837,3.509-7.837,7.837v89.465H247.7v-89.465
	C247.7,366.068,244.192,362.56,239.864,362.56z"/>
<path style="opacity:0.1;enable-background:new    ;" d="M235.762,443.676V308.94c-14.47-20.441-22.985-45.466-22.985-72.498
	v207.235c0,8.903,7.276,16.185,16.169,16.185h22.985C243.038,459.862,235.762,452.578,235.762,443.676z"/>
<g>
	<path style="fill:#4D4D4D;" d="M238.237,323.02h-33.33c-6.795,0-12.324-5.606-12.324-12.497V266.3H176.91v44.223
		c0,15.533,12.56,28.17,27.997,28.17h33.33V323.02z"/>
	<path style="fill:#4D4D4D;" d="M491.905,203.118c-4.328,0-7.837-3.509-7.837-7.837V178.65c0-82.045-66.147-148.793-147.454-148.793
		c-81.308,0-147.456,66.748-147.456,148.793v16.631c0,4.328-3.509,7.837-7.837,7.837c-4.328,0-7.837-3.509-7.837-7.837V178.65
		c0-90.688,73.179-164.467,163.129-164.467c89.949,0,163.127,73.779,163.127,164.467v16.631
		C499.741,199.609,496.232,203.118,491.905,203.118z"/>
</g>
<path style="fill:#FFCB00;" d="M114.876,198.252c-1.562,0-3.097-0.611-4.244-1.763l-32.326-32.422H6c-3.313,0-6-2.696-6-6.019
	V57.877c0-3.324,2.686-6.019,6-6.019h136.787c3.313,0,6.001,2.695,6.001,6.019v100.171c0,3.324-2.686,6.019-6.001,6.019h-21.912
	v28.166c0,2.435-1.462,4.629-3.704,5.561C116.429,198.102,115.648,198.252,114.876,198.252z"/>
<g style="opacity:0.1;">
	<path d="M23.175,158.047V57.877c0-3.324,2.687-6.019,6-6.019H6c-3.313-0.001-6,2.694-6,6.019v100.171c0,3.324,2.686,6.019,6,6.019
		h23.175C25.861,164.067,23.175,161.371,23.175,158.047z"/>
</g>
<g>
	<path style="fill:#C97200;" d="M110.399,103.761h-72.01c-4.328,0-7.837-3.509-7.837-7.837s3.509-7.837,7.837-7.837h72.01
		c4.328,0,7.837,3.509,7.837,7.837S114.727,103.761,110.399,103.761z"/>
	<path style="fill:#C97200;" d="M83.995,130.244H38.389c-4.328,0-7.837-3.509-7.837-7.837c0-4.328,3.509-7.837,7.837-7.837h45.606
		c4.328,0,7.837,3.509,7.837,7.837C91.832,126.736,88.323,130.244,83.995,130.244z"/>
</g>
<path style="fill:#737373;" d="M454.867,247.792v-64.686c2.058-0.721,4.258-1.131,6.549-1.131h30.424
	c11.088,0,20.159,9.15,20.159,20.333v48.8c0,11.182-9.071,20.333-20.159,20.333h-30.424c-3.007,0-5.856-0.692-8.425-1.896
	C454.221,262.48,454.867,255.214,454.867,247.792z"/>
<path style="fill:#00E5D4;" d="M454.867,183.106c2.058-0.721,4.258-1.131,6.549-1.131h20.578v89.465h-20.578
	c-3.007,0-5.856-0.692-8.425-1.896c1.23-7.065,1.875-14.33,1.875-21.752v-64.686H454.867z"/>
<path style="fill:#737373;" d="M218.36,247.792v-64.686c-2.058-0.721-4.257-1.131-6.55-1.131h-30.423
	c-11.088,0-20.159,9.15-20.159,20.333v48.8c0,11.182,9.071,20.333,20.159,20.333h30.423c3.007,0,5.857-0.692,8.426-1.896
	C219.005,262.48,218.36,255.214,218.36,247.792z"/>
<path style="opacity:0.1;enable-background:new    ;" d="M174.498,251.109v-48.8c0-11.182,9.071-20.333,20.159-20.333h-13.27
	c-11.088,0-20.159,9.15-20.159,20.333v48.8c0,11.182,9.071,20.333,20.159,20.333h13.27
	C183.569,271.44,174.498,262.29,174.498,251.109z"/>
<path style="fill:#00E5D4;" d="M218.36,183.106c-2.058-0.721-4.257-1.131-6.55-1.131h-20.577v89.465h20.577
	c3.007,0,5.857-0.692,8.426-1.896c-1.23-7.065-1.876-14.33-1.876-21.752V183.106z"/>
<g>
	<path style="fill:#72563C;" d="M433.364,362.56c-4.328,0-7.837,3.509-7.837,7.837v89.465h15.673v-89.465
		C441.201,366.068,437.692,362.56,433.364,362.56z"/>
	<path style="fill:#72563C;" d="M270.759,374.022c-4.328,0-7.837,3.509-7.837,7.837v78.003h15.673v-78.003
		C278.596,377.531,275.087,374.022,270.759,374.022z"/>
	<path style="fill:#72563C;" d="M399.78,374.022c-4.328,0-7.837,3.509-7.837,7.837v78.003h15.673v-78.003
		C407.617,377.531,404.109,374.022,399.78,374.022z"/>
</g>
<path style="fill:#FF5E97;" d="M402.503,389.772H270.724c-16.972,0-30.861,14.007-30.861,31.128v70.695
	c0,3.421,2.778,6.222,6.173,6.222h181.155c3.395,0,6.173-2.801,6.173-6.222V420.9C433.364,403.779,419.475,389.772,402.503,389.772z
	"/>
<g>
	<path style="fill:#E3328B;" d="M303.445,460.597h-35.142c-4.328,0-7.837-3.509-7.837-7.837s3.509-7.837,7.837-7.837h35.142
		c4.328,0,7.837,3.509,7.837,7.837S307.773,460.597,303.445,460.597z"/>
	<rect x="322.058" y="389.768" style="fill:#E3328B;" width="15.673" height="108.042"/>
</g>
<path style="fill:#EAC092;" d="M309.105,364.669v41.163c0,5.935,4.85,10.79,10.779,10.79h33.459c5.929,0,10.779-4.855,10.779-10.79
	v-41.163H309.105z"/>
<path style="opacity:0.1;enable-background:new    ;" d="M326.008,405.832v-41.163h-16.903v41.163c0,5.935,4.85,10.79,10.779,10.79
	h16.903C330.859,416.622,326.008,411.766,326.008,405.832z"/>
<path style="opacity:0.1;enable-background:new    ;" d="M258.927,491.594V420.9c0-17.121,13.889-31.128,30.861-31.128h-19.063
	c-16.972,0-30.861,14.007-30.861,31.128v70.695c0,3.421,2.778,6.222,6.173,6.222H265.1
	C261.705,497.817,258.927,495.015,258.927,491.594z"/>
<path style="fill:#F8D5AB;" d="M460.451,247.792c0,68.985-55.446,124.907-123.837,124.907l0,0
	c-68.394,0-123.836-55.922-123.836-124.907v-68.697c0-68.983,55.442-124.904,123.836-124.904l0,0
	c68.392,0,123.837,55.922,123.837,124.904V247.792z"/>
<path style="fill:#A37B5D;" d="M392.876,67.799c-0.117,33.831-13.57,64.487-35.331,86.911
	c21.744,19.077,50.151,30.629,81.233,30.629c7.398,0,14.63-0.69,21.672-1.945v-4.299C460.451,130.547,432.987,88.469,392.876,67.799
	z"/>
<path style="fill:#72563C;" d="M456.497,147.675c-23.231-3.922-44.65-14.331-62.368-30.431c-2.911-2.646-5.665-5.419-8.292-8.288
	c-1.889,5.395-4.13,10.621-6.704,15.647c1.453,1.439,2.934,2.857,4.456,4.24c21.391,19.437,47.581,31.515,75.955,35.118
	C458.879,158.414,457.859,152.975,456.497,147.675z"/>
<path style="fill:#8C6748;" d="M336.614,54.193c-68.394,0-123.836,55.922-123.836,124.904v1.982
	c18.22,10.635,39.353,16.754,61.919,16.754c68.393,0,123.836-55.923,123.836-124.906v-1.981
	C380.313,60.308,359.176,54.193,336.614,54.193z"/>
<g>
	<path style="fill:#72563C;" d="M364.288,57.349c-4.805,27.073-18.499,51.788-39.094,70.243
		c-22.668,20.312-51.859,31.329-82.196,31.02c-9.425-0.096-18.784-1.311-27.914-3.586c-0.988,5.105-1.668,10.322-2.019,15.629
		c9.755,2.291,19.731,3.528,29.773,3.63c34.261,0.35,67.224-12.087,92.815-35.02c22.757-20.393,38.039-47.567,43.734-77.377
		C374.492,60.064,369.453,58.542,364.288,57.349z"/>
	<path style="fill:#72563C;" d="M336.614,54.193c-3.582,0-7.126,0.162-10.632,0.463c-8.621,19.563-22.343,36.875-39.544,49.593
		c-18.507,13.684-39.998,21.653-62.68,23.36c-2.31,5.144-4.279,10.478-5.89,15.966c28.226-0.677,55.065-9.849,77.888-26.723
		c21.296-15.745,37.866-37.735,47.275-62.475C340.904,54.266,338.767,54.193,336.614,54.193z"/>
</g>
<path style="opacity:0.1;enable-background:new    ;" d="M234.588,247.792v-68.697c0-65.278,49.65-118.85,112.938-124.417
	c-3.596-0.32-7.234-0.487-10.912-0.487c-68.394,0-123.836,55.922-123.836,124.904v68.697c0,68.985,55.442,124.907,123.836,124.907
	c3.677,0,7.314-0.168,10.909-0.487C284.236,366.644,234.588,313.072,234.588,247.792z"/>
<path style="fill:#737373;" d="M286.361,335.208c0,5.935-4.85,10.791-10.779,10.791h-35.495c-5.929,0-10.779-4.856-10.779-10.791
	v-9.83c0-5.934,4.85-10.79,10.779-10.79h35.495c5.929,0,10.779,4.856,10.779,10.79V335.208z"/>
<g style="opacity:0.1;">
	<path d="M252.841,335.208v-9.83c0-5.934,4.851-10.79,10.779-10.79h-23.534c-5.929,0-10.779,4.856-10.779,10.79v9.83
		c0,5.935,4.85,10.791,10.779,10.791h23.534C257.693,345.999,252.841,341.143,252.841,335.208z"/>
</g>
<g>
	<path style="fill:#8C6748;" d="M283.527,271.355c-4.328,0-7.837-3.509-7.837-7.837v-12.62c0-4.328,3.509-7.837,7.837-7.837
		c4.328,0,7.837,3.509,7.837,7.837v12.62C291.363,267.846,287.855,271.355,283.527,271.355z"/>
	<path style="fill:#8C6748;" d="M389.701,271.355c-4.328,0-7.837-3.509-7.837-7.837v-12.62c0-4.328,3.509-7.837,7.837-7.837
		c4.328,0,7.837,3.509,7.837,7.837v12.62C397.538,267.846,394.029,271.355,389.701,271.355z"/>
	<path style="fill:#8C6748;" d="M348.709,288.767h-10.736c-7.292,0-13.226-5.936-13.226-13.232v-17.65
		c0-4.328,3.509-7.837,7.837-7.837s7.837,3.509,7.837,7.837v15.208h8.289c4.328,0,7.837,3.509,7.837,7.837
		C356.545,285.258,353.037,288.767,348.709,288.767z"/>
	<path style="fill:#8C6748;" d="M302.343,233.187h-43.007c-4.328,0-7.837-3.509-7.837-7.837s3.509-7.837,7.837-7.837h43.007
		c4.328,0,7.837,3.509,7.837,7.837C310.18,229.679,306.671,233.187,302.343,233.187z"/>
	<path style="fill:#8C6748;" d="M413.89,233.187h-43.006c-4.328,0-7.837-3.509-7.837-7.837s3.509-7.837,7.837-7.837h43.006
		c4.328,0,7.837,3.509,7.837,7.837C421.727,229.679,418.218,233.187,413.89,233.187z"/>
</g>
<g>
	<path style="fill:#E3328B;" d="M354.085,451.434c-2.058,0-4.086-0.836-5.538-2.299c-1.463-1.452-2.299-3.469-2.299-5.538
		c0-2.058,0.836-4.086,2.299-5.538c1.452-1.463,3.479-2.299,5.538-2.299c2.058,0,4.086,0.836,5.548,2.299
		c1.452,1.452,2.288,3.479,2.288,5.538c0,2.069-0.836,4.086-2.288,5.538C358.17,450.598,356.143,451.434,354.085,451.434z"/>
	<path style="fill:#E3328B;" d="M354.085,481.255c-2.058,0-4.086-0.836-5.538-2.288c-1.463-1.463-2.299-3.479-2.299-5.548
		c0-2.058,0.836-4.086,2.299-5.538c1.452-1.463,3.479-2.299,5.538-2.299c2.069,0,4.086,0.836,5.548,2.299
		c1.452,1.452,2.288,3.479,2.288,5.538s-0.836,4.086-2.288,5.548C358.17,480.419,356.143,481.255,354.085,481.255z"/>
</g>
<path style="fill:#FF5E97;" d="M336.614,349.793c-13.459,0-24.409-10.968-24.409-24.446v-11.771c0-2.5,2.024-4.527,4.521-4.527
	h39.777c2.496,0,4.52,2.026,4.52,4.527v11.771C361.023,338.826,350.072,349.793,336.614,349.793z"/>
<g>
</g>
<g>
</g>
<g>
</g>
<g>
</g>
<g>
</g>
<g>
</g>
<g>
</g>
<g>
</g>
<g>
</g>
<g>
</g>
<g>
</g>
<g>
</g>
<g>
</g>
<g>
</g>
<g>
</g>
</svg>
