<?xml version="1.0" encoding="iso-8859-1"?>
<!-- Generator: Adobe Illustrator 19.0.0, SVG Export Plug-In . SVG Version: 6.00 Build 0)  -->
<svg version="1.1" id="Layer_1" xmlns="http://www.w3.org/2000/svg" xmlns:xlink="http://www.w3.org/1999/xlink" x="0px" y="0px"
	 viewBox="0 0 512 512" style="enable-background:new 0 0 512 512;" xml:space="preserve">
<path style="fill:#FED159;" d="M491.053,256.539c0,18.22-14.768,32.977-32.988,32.977H228.674
	c-13.648,0-24.662,11.317-24.169,25.077c0.459,13.099,11.631,23.295,24.752,23.295h161.511l1.815-0.314
	c2.992,17.032,2.846,31.094,2.846,31.094l11.552-31.341l1.513,0.56h9.267c15.788,0,28.584,12.796,28.584,28.584v69.965
	l-24.618-17.458c-3.855-2.734-8.124-3.967-12.281-3.967c-11.104,0-21.469,8.796-21.469,21.424
	c-39.857-26.971-86.885-41.38-135.01-41.38H151.628c-23.542,0-45.246-11.631-58.356-30.545c-2.499-3.586-4.684-7.451-6.51-11.541
	H8.404V188.177h47.465l0.235-0.123L26.399,131.21l40.585,23.576c10.23,5.939,21.716,8.953,33.257,8.953
	c8.124,0,16.27-1.49,24.024-4.504c28.898-11.239,61.729-0.93,79.007,24.819l1.95,2.902l0.011,0.011
	c-7.216,6.611-11.743,16.135-11.743,26.702c0,20.035,16.247,28.439,36.282,28.439c16.46,0,30.366-5.67,34.803-18.813l0.784,0.269
	H380.38c0-16.998,13.782-30.78,30.78-30.78c17.009,0,30.78,13.782,30.78,30.78h16.124c9.11,0,17.357,3.698,23.329,9.659
	C487.355,239.194,491.053,247.429,491.053,256.539z"/>
<g>
	<path style="fill:#E2AF47;" d="M107.345,347.435l-14.074,17.077c-2.499-3.586-4.684-7.451-6.51-11.541H8.404v-62.637h50.389
		L107.345,347.435z"/>
	<path style="fill:#E2AF47;" d="M446.345,380.636v55.801l-24.618-17.458c-3.855-2.734-8.124-3.967-12.281-3.967
		c-11.104,0-21.469,8.796-21.469,21.424c-39.857-26.971-86.885-41.381-135.01-41.381H151.628c-28.024,0-53.437-16.483-64.866-42.086
		l-27.968-62.637l44.302,40.382c22.261,20.291,51.314,31.429,81.434,31.47c75.958,0.102,130.899,15.836,196.971,31.572
		C429.694,405.231,443.14,392.3,446.345,380.636z"/>
</g>
<path style="fill:#E6E6E6;" d="M392.583,337.575l-1.815,0.314H229.257c-13.121,0-24.293-10.197-24.752-23.295
	c-0.056-1.524,0.034-3.025,0.258-4.482c1.737-11.653,11.777-20.595,23.912-20.595h143.168c5.569,5.569,9.827,12.785,13.076,20.595
	C388.627,319.019,391.025,328.7,392.583,337.575z"/>
<path style="fill:#CCCCCC;" d="M384.918,310.111H204.762c1.737-11.653,11.777-20.595,23.912-20.595h143.168
	C377.411,295.085,381.669,302.302,384.918,310.111z"/>
<path style="fill:#FFFFFF;" d="M229.772,177.386c20.035,0,36.282,16.247,36.282,36.282c0,3.574-0.515,6.768-1.479,9.625
	c-4.437,13.144-18.343,18.813-34.803,18.813c-20.035,0-36.282-8.404-36.282-28.439c0-10.566,4.527-20.091,11.743-26.702
	C211.687,181.017,220.304,177.386,229.772,177.386z"/>
<path style="fill:#E6E6E6;" d="M424.618,289.516l-17.637,47.812l-11.552,31.341c0,0,0.146-14.062-2.846-31.094
	c-2.913-16.651-8.807-36.125-20.741-48.059H424.618z"/>
<path style="fill:#EE4948;" d="M229.772,177.386c-9.468,0-18.085,3.63-24.539,9.58l-0.011-0.011l-1.95-2.902
	c-17.278-25.749-50.109-36.058-79.007-24.819c-2.062-33.122-18.589-63.656-45.19-83.489L21.85,33.064l12.505,3.754
	C113.373,60.528,182.173,110.01,229.772,177.386z"/>
<circle style="fill:#FEE7AD;" cx="139.1" cy="268.632" r="16.808"/>
<path d="M176.075,386.654h-24.447c-24.68,0-47.13-14.567-57.193-37.109L58.253,268.51c-1.893-4.238-6.862-6.14-11.1-4.248
	c-4.238,1.893-6.139,6.862-4.248,11.1l30.899,69.205H8.404c-4.641,0-8.404,3.763-8.404,8.404c0,4.641,3.763,8.404,8.404,8.404
	h73.123c13.716,25.737,40.654,42.086,70.101,42.086h24.446c4.641,0,8.404-3.763,8.404-8.404
	C184.479,390.416,180.716,386.654,176.075,386.654z"/>
<path d="M401.399,113.601c4.642,0,8.404-3.763,8.404-8.404v-9.872c0-4.641-3.762-8.404-8.404-8.404s-8.404,3.763-8.404,8.404v9.872
	C392.995,109.839,396.757,113.601,401.399,113.601z"/>
<path d="M401.399,164.09c4.642,0,8.404-3.763,8.404-8.404v-9.872c0-4.641-3.762-8.404-8.404-8.404s-8.404,3.763-8.404,8.404v9.872
	C392.995,160.327,396.757,164.09,401.399,164.09z"/>
<path d="M371.219,133.91h9.872c4.642,0,8.404-3.763,8.404-8.404c0-4.641-3.762-8.404-8.404-8.404h-9.872
	c-4.642,0-8.404,3.763-8.404,8.404C362.815,130.148,366.578,133.91,371.219,133.91z"/>
<path d="M421.707,133.91h9.873c4.642,0,8.404-3.763,8.404-8.404c0-4.641-3.762-8.404-8.404-8.404h-9.873
	c-4.642,0-8.404,3.763-8.404,8.404C413.303,130.148,417.065,133.91,421.707,133.91z"/>
<path d="M131.741,447.163c4.641,0,8.404-3.763,8.404-8.404v-7.856c0-4.641-3.763-8.404-8.404-8.404
	c-4.641,0-8.404,3.763-8.404,8.404v7.856C123.337,443.4,127.1,447.163,131.741,447.163z"/>
<path d="M131.741,462.677c-4.641,0-8.404,3.763-8.404,8.404v7.856c0,4.641,3.763,8.404,8.404,8.404c4.641,0,8.404-3.763,8.404-8.404
	v-7.856C140.145,466.44,136.382,462.677,131.741,462.677z"/>
<path d="M115.579,446.516h-7.856c-4.641,0-8.404,3.763-8.404,8.404c0,4.641,3.763,8.404,8.404,8.404h7.856
	c4.641,0,8.404-3.763,8.404-8.404C123.982,450.279,120.221,446.516,115.579,446.516z"/>
<path d="M155.758,446.516h-7.856c-4.641,0-8.404,3.763-8.404,8.404c0,4.641,3.763,8.404,8.404,8.404h7.856
	c4.641,0,8.404-3.763,8.404-8.404C164.162,450.279,160.399,446.516,155.758,446.516z"/>
<circle cx="411.362" cy="226.556" r="8.998"/>
<circle cx="239.857" cy="210.824" r="8.998"/>
<path d="M507.816,384.46c-34.062-19.783-31.75-36.355-28.821-57.337c1.471-10.535,3.125-22.389-0.374-34.689
	c12.435-7.147,20.835-20.554,20.835-35.893c0-11.038-4.302-21.428-12.125-29.267c-7.827-7.812-18.221-12.115-29.266-12.115h-8.627
	c-3.857-17.581-19.555-30.78-38.278-30.78c-18.722,0-34.42,13.2-38.277,30.78h-98.482c0.017-0.498,0.056-0.986,0.056-1.49
	c0-10.871-3.906-20.845-10.383-28.6c11.474-5.54,22.663-16.089,22.663-34.093c0-4.641-3.762-8.404-8.404-8.404
	c-4.642,0-8.404,3.763-8.404,8.404c0,15.758-15.945,20.622-21.958,21.897c-0.946-0.424-1.903-0.826-2.882-1.184
	c5.255-8.572,8.032-18.026,8.032-27.436c0-4.641-3.763-8.404-8.404-8.404s-8.404,3.763-8.404,8.404
	c0,6.697-2.046,13.258-6.078,19.495c-29.332-39.127-65.467-71.725-107.551-97.003c-3.981-2.39-9.142-1.101-11.531,2.876
	c-2.39,3.979-1.101,9.141,2.876,11.531c5.477,3.29,10.845,6.712,16.11,10.259c-2.447,1.469-4.091,4.14-4.091,7.203
	c0,4.641,3.763,8.404,8.404,8.404h17.091c4.795,3.771,9.484,7.661,14.07,11.663l-11.068,0.101c-4.641,0.043-8.369,3.838-8.328,8.479
	c0.041,4.615,3.796,8.328,8.402,8.328c0.026,0,0.052,0,0.077,0l28.705-0.26c11.279,11.291,21.819,23.358,31.586,36.17
	c-2.718,0.952-5.337,2.17-7.826,3.636c-9.28-11.909-22.068-20.84-36.522-25.38c-12.675-3.981-26.231-4.455-39.103-1.507
	c-4.715-31.537-21.633-59.998-47.442-79.241L70.531,58.889c8.127,3.486,16.122,7.268,23.95,11.332
	c4.118,2.138,9.192,0.532,11.331-3.588c2.138-4.119,0.532-9.193-3.587-11.331c-20.885-10.84-42.907-19.767-65.454-26.533
	l-12.505-3.754c-3.904-1.173-8.09,0.627-9.923,4.271c-1.833,3.643-0.787,8.077,2.483,10.515l57.226,42.68
	c22.939,17.103,37.723,42.659,41.221,70.857c-4.891,1.318-9.923,1.997-15.032,1.997c-10.188,0-20.229-2.704-29.036-7.817
	L30.62,123.943c-3.236-1.879-7.325-1.393-10.03,1.193c-2.705,2.586-3.373,6.649-1.639,9.966l23.344,44.671H8.404
	c-4.641,0-8.404,3.763-8.404,8.404s3.763,8.404,8.404,8.404h42.681l0.136,0.259c11.161,21.377,33.316,34.498,56.98,34.497
	c3,0,6.024-0.211,9.054-0.642l22.466-3.216c4.594-0.658,7.785-4.916,7.128-9.51s-4.918-7.789-9.51-7.128l-22.461,3.216
	c-19.875,2.83-39.471-7.213-48.764-25.005l-18.807-35.975l15.457,8.98c11.369,6.6,24.329,10.089,37.477,10.089
	c9.244,0,18.301-1.692,26.923-5.023c0.047-0.017,0.094-0.033,0.14-0.05c0.002-0.001,0.004-0.001,0.007-0.002
	c24.463-9.513,51.649-1.612,67.207,19.18c-6.052,7.781-9.432,17.442-9.432,27.422c0,22.725,17.123,36.842,44.686,36.842
	c18.928,0,33.119-6.682,40.033-18.544h18.025v10.182c0,4.641,3.762,8.404,8.404,8.404c4.642,0,8.404-3.763,8.404-8.404v-10.182
	h19.97v10.182c0,4.641,3.762,8.404,8.404,8.404c4.642,0,8.404-3.763,8.404-8.404v-10.182h18.471v10.182
	c0,4.641,3.762,8.404,8.404,8.404c4.642,0,8.404-3.763,8.404-8.404v-10.182h3.688c4.642,0,8.404-3.763,8.404-8.404
	c0-12.338,10.038-22.377,22.377-22.377s22.378,10.038,22.378,22.377c0,4.641,3.762,8.404,8.404,8.404h16.124
	c6.562,0,12.738,2.558,17.381,7.191c4.645,4.653,7.203,10.828,7.203,17.381c0,8.826-4.681,16.578-11.691,20.911
	c-8.108-10.295-21.433-18.251-39.367-23.327c-4.466-1.263-9.111,1.331-10.376,5.798c-1.264,4.465,1.331,9.111,5.798,10.375
	c7.734,2.189,16.662,5.61,23.72,10.816h-222.06c-8.924,0-17.251,3.539-23.452,9.965c-6.199,6.424-9.436,14.883-9.116,23.811
	c0.607,17.316,15.479,31.405,33.15,31.405H385.42c1.668,12.598,1.605,22.181,1.603,22.289c-0.041,4.088,2.864,7.613,6.886,8.352
	c0.51,0.094,1.02,0.14,1.523,0.14c3.465,0,6.647-2.149,7.881-5.498l9.324-25.283h5.124c11.128,0,20.18,9.053,20.18,20.18v53.703
	l-11.352-8.051c-5.088-3.608-11.016-5.515-17.143-5.515c-11.667,0-21.792,6.711-26.707,16.47
	c-39.105-23.869-83.72-36.427-129.772-36.427H204.46c-4.641,0-8.404,3.763-8.404,8.404c0,4.641,3.763,8.404,8.404,8.404h48.507
	c46.633,0,91.692,13.81,130.301,39.936c2.575,1.742,5.904,1.922,8.649,0.463c2.747-1.458,4.464-4.313,4.464-7.423
	c0-8.042,6.782-13.02,13.065-13.02c2.661,0,5.158,0.814,7.419,2.418l24.618,17.458c1.449,1.027,3.152,1.549,4.863,1.549
	c1.319,0,2.642-0.31,3.857-0.938c2.791-1.443,4.546-4.323,4.546-7.466v-69.965c0-20.038-16.02-36.394-35.922-36.961l11.65-31.592
	h27.589c1.54,0,3.057-0.092,4.553-0.255c2.296,8.688,1.051,17.669-0.269,27.134c-3.19,22.846-6.805,48.74,37.025,74.195
	c1.329,0.771,2.779,1.138,4.213,1.138c2.897,0,5.716-1.499,7.274-4.185C513.193,391.933,511.83,386.791,507.816,384.46z
	 M229.772,233.704c-23.041,0-27.878-10.895-27.878-20.035c0-7.782,3.286-15.256,9.035-20.522c5.145-4.743,11.837-7.356,18.843-7.356
	c15.372,0,27.878,12.506,27.878,27.878c0,2.561-0.35,4.897-1.038,6.937C252.766,232.002,238.146,233.704,229.772,233.704z
	 M304.815,297.921h26.744v31.565h-26.744L304.815,297.921L304.815,297.921z M288.007,329.486h-26.744v-31.565h26.744V329.486z
	 M348.367,297.921h19.762c6.069,7.218,10.891,17.96,14.188,31.565h-33.95V297.921z M212.903,314.293
	c-0.156-4.333,1.413-8.433,4.415-11.545c3.003-3.113,7.036-4.827,11.356-4.827h15.78v31.565h-15.197
	C220.534,329.486,213.198,322.672,212.903,314.293z M400.055,331.824c-2.678-13.396-6.584-24.726-11.671-33.903h24.178
	L400.055,331.824z"/>
<path d="M205.302,274.315c0.447,0.071,0.891,0.105,1.331,0.105c4.06,0,7.632-2.948,8.288-7.085c0.729-4.584-2.396-8.89-6.98-9.62
	c-25.866-4.115-29.454-22.667-29.622-23.632c-0.714-4.548-4.957-7.683-9.524-7.011c-4.592,0.676-7.767,4.946-7.092,9.538
	C161.893,237.897,166.78,268.187,205.302,274.315z"/>
<g>
</g>
<g>
</g>
<g>
</g>
<g>
</g>
<g>
</g>
<g>
</g>
<g>
</g>
<g>
</g>
<g>
</g>
<g>
</g>
<g>
</g>
<g>
</g>
<g>
</g>
<g>
</g>
<g>
</g>
</svg>
