<?xml version="1.0" encoding="iso-8859-1"?>
<!-- Generator: Adobe Illustrator 19.0.0, SVG Export Plug-In . SVG Version: 6.00 Build 0)  -->
<svg version="1.1" id="Layer_1" xmlns="http://www.w3.org/2000/svg" xmlns:xlink="http://www.w3.org/1999/xlink" x="0px" y="0px"
	 viewBox="0 0 512.002 512.002" style="enable-background:new 0 0 512.002 512.002;" xml:space="preserve">
<polyline style="fill:#48ADE1;" points="317.551,114.987 256.008,53.442 92.679,216.77 92.679,466.332 419.336,466.332 
	419.336,237.172 419.336,216.77 335.332,132.767 "/>
<path style="fill:#82D6F4;" d="M306.776,283.298H205.239c-7.122,0-12.894,5.773-12.894,12.894v170.139H319.67V296.193
	C319.67,289.072,313.897,283.298,306.776,283.298z"/>
<circle style="fill:#48ADE1;" cx="229.757" cy="374.28" r="12.357"/>
<g>
	<path style="fill:#828186;" d="M147.891,108.373V66.337c0-7.121-5.772-12.894-12.894-12.894h-29.423
		c-7.121,0-12.894,5.773-12.894,12.894v97.248L147.891,108.373z"/>
	<path style="fill:#828186;" d="M164.195,503.94H70.866c-10.385,0-18.804-8.42-18.804-18.804c0-10.386,8.419-18.804,18.804-18.804
		h370.283c10.385,0,18.804,8.418,18.804,18.804c0,10.384-8.419,18.804-18.804,18.804H189.985"/>
</g>
<polygon style="fill:#2595B7;" points="122.766,216.77 122.766,186.683 92.679,216.77 92.679,466.332 122.766,466.332 
	122.766,411.433 "/>
<path style="fill:#59B7D8;" d="M235.326,283.298h-30.087c-7.122,0-12.894,5.773-12.894,12.894v170.139h30.087V296.193
	C222.432,289.072,228.204,283.298,235.326,283.298z"/>
<g>
	<path style="fill:#676570;" d="M122.766,66.337c0-7.008,5.597-12.7,12.562-12.877c-0.112-0.003-0.219-0.017-0.332-0.017h-29.423
		c-7.121,0-12.894,5.773-12.894,12.894v97.248l30.087-30.086V66.337z"/>
	<path style="fill:#676570;" d="M82.149,485.136c0-10.386,8.419-18.804,18.804-18.804H70.866c-10.385,0-18.804,8.418-18.804,18.804
		c0,10.384,8.419,18.804,18.804,18.804h30.087C90.568,503.94,82.149,495.52,82.149,485.136z"/>
</g>
<path style="fill:#FF3632;" d="M315.135,59.384l-45.83-45.831c-7.343-7.343-19.25-7.343-26.594,0L25.645,230.617
	c-7.344,7.343-7.344,19.249,0,26.592c7.343,7.345,19.25,7.345,26.594,0L256.008,53.442l163.328,163.327l40.441,40.441
	c3.672,3.673,8.486,5.509,13.297,5.509c4.813,0,9.625-1.836,13.296-5.509c7.343-7.343,7.343-19.249,0-26.592L333.453,77.703"/>
<g>
	<path style="fill:#010101;" d="M88.051,32.544h64.469c4.452,0,8.059-3.607,8.059-8.059s-3.607-8.059-8.059-8.059H88.051
		c-4.452,0-8.059,3.607-8.059,8.059S83.599,32.544,88.051,32.544z"/>
	<path style="fill:#010101;" d="M492.068,224.918L339.153,72.005c-3.148-3.146-8.25-3.146-11.398,0
		c-3.147,3.148-3.147,8.25,0,11.398l152.916,152.914c4.19,4.189,4.19,11.005,0,15.196c-2.03,2.031-4.727,3.148-7.597,3.148
		c-2.87,0-5.569-1.117-7.598-3.149l-40.438-40.438c-0.001,0-0.001-0.001-0.002-0.002l-31.741-31.739L261.706,47.744
		c-1.573-1.573-3.636-2.36-5.698-2.36c-2.063,0-4.125,0.787-5.699,2.36L86.98,211.072c-0.003,0.003-0.006,0.008-0.01,0.011
		l-40.43,40.43c-2.03,2.031-4.728,3.148-7.598,3.148c-2.869,0-5.568-1.117-7.598-3.149c-2.03-2.03-3.147-4.727-3.147-7.597
		c0-2.87,1.118-5.568,3.148-7.597l67.026-67.026c0.002-0.002,0.004-0.004,0.008-0.006l55.213-55.212
		c0.005-0.005,0.01-0.011,0.014-0.016l94.806-94.805c2.03-2.03,4.727-3.148,7.598-3.148c2.87,0,5.568,1.119,7.597,3.148l45.83,45.83
		c3.148,3.148,8.25,3.147,11.398,0.001c3.147-3.148,3.147-8.25,0-11.398l-45.83-45.832c-10.476-10.473-27.518-10.471-37.991,0
		l-81.062,81.062V66.337c0-11.553-9.4-20.953-20.953-20.953h-29.424c-11.553,0-20.953,9.4-20.953,20.953v93.91l-64.673,64.673
		c-5.075,5.074-7.869,11.82-7.869,18.996s2.795,13.922,7.868,18.994c5.074,5.075,11.82,7.87,18.996,7.87
		c7.177,0,13.923-2.796,18.997-7.869l26.682-26.682v222.046H70.866c-14.812,0-26.863,12.051-26.863,26.863
		s12.051,26.863,26.863,26.863h93.329c4.452,0,8.059-3.607,8.059-8.059s-3.607-8.059-8.059-8.059H70.866
		c-5.925,0-10.745-4.82-10.745-10.745c0-5.925,4.82-10.745,10.745-10.745h21.813h99.666H319.67h99.666h21.813
		c5.925,0,10.745,4.82,10.745,10.745c0,5.925-4.82,10.745-10.745,10.745H189.985c-4.452,0-8.059,3.607-8.059,8.059
		s3.607,8.059,8.059,8.059h251.163c14.812,0,26.863-12.051,26.863-26.863s-12.051-26.863-26.863-26.863h-13.754V236.226
		l26.682,26.682c5.074,5.075,11.82,7.87,18.997,7.87c7.176,0,13.922-2.796,18.996-7.869
		C502.542,252.435,502.542,235.393,492.068,224.918z M100.738,66.337c0-2.666,2.169-4.835,4.835-4.835h29.424
		c2.666,0,4.835,2.169,4.835,4.835v38.697l-39.095,39.095V66.337z M200.404,458.273v-162.08c0-2.666,2.169-4.835,4.835-4.835
		h101.537c2.666,0,4.835,2.169,4.835,4.835v162.08H200.404z M411.277,458.273h-83.548v-162.08c0-11.553-9.4-20.953-20.953-20.953
		H205.239c-11.553,0-20.953,9.4-20.953,20.953v162.08h-83.548V220.11l155.27-155.27l55.845,55.847
		c0.004,0.004,0.01,0.009,0.015,0.013l17.752,17.752c0.004,0.004,0.009,0.011,0.013,0.015l73.424,73.422l8.221,8.22v238.164H411.277
		z"/>
	<path style="fill:#010101;" d="M319.67,246.59H192.345c-4.452,0-8.059,3.607-8.059,8.059c0,4.452,3.607,8.059,8.059,8.059H319.67
		c4.452,0,8.059-3.607,8.059-8.059C327.729,250.198,324.121,246.59,319.67,246.59z"/>
	<path style="fill:#010101;" d="M319.67,218.428H192.345c-4.452,0-8.059,3.607-8.059,8.059s3.607,8.059,8.059,8.059H319.67
		c4.452,0,8.059-3.607,8.059-8.059S324.121,218.428,319.67,218.428z"/>
	<path style="fill:#010101;" d="M229.753,353.861c-11.258,0-20.416,9.158-20.416,20.416c0,11.258,9.158,20.416,20.416,20.416
		c11.258,0,20.416-9.158,20.416-20.416C250.169,363.019,241.01,353.861,229.753,353.861z M229.753,378.575
		c-2.37,0-4.298-1.928-4.298-4.298c0-2.37,1.928-4.298,4.298-4.298s4.298,1.928,4.298,4.298
		C234.051,376.647,232.123,378.575,229.753,378.575z"/>
</g>
<g>
</g>
<g>
</g>
<g>
</g>
<g>
</g>
<g>
</g>
<g>
</g>
<g>
</g>
<g>
</g>
<g>
</g>
<g>
</g>
<g>
</g>
<g>
</g>
<g>
</g>
<g>
</g>
<g>
</g>
</svg>
