<?xml version="1.0" encoding="iso-8859-1"?>
<!-- Generator: Adobe Illustrator 18.0.0, SVG Export Plug-In . SVG Version: 6.00 Build 0)  -->
<!DOCTYPE svg PUBLIC "-//W3C//DTD SVG 1.1//EN" "http://www.w3.org/Graphics/SVG/1.1/DTD/svg11.dtd">
<svg version="1.1" id="Capa_1" xmlns="http://www.w3.org/2000/svg" xmlns:xlink="http://www.w3.org/1999/xlink" x="0px" y="0px"
	 viewBox="0 0 426.809 426.809" style="enable-background:new 0 0 426.809 426.809;" xml:space="preserve">
<g>
	<g id="XMLID_47_">
		<g>
			<path style="fill:#EA6081;" d="M152.578,48.147c7.85,26.45,15.31,51.54-14.36,80.93c-0.89-2.43-1.85-4.91-2.83-7.45
				c-10.49-27.19-23.31-60.43,11.33-96.95C147.898,32.377,150.198,40.137,152.578,48.147z"/>
			<path style="fill:#EA6081;" d="M295.878,169.127c11.01,22.45,15.51,45.49,13.38,68.47c-3.54,38.26-29.31,51.64-43.03,56.08
				c0.27-24.5-10.78-36.13-20.67-46.53c-9.06-9.54-16.88-17.77-17.78-35.97c-0.1-2.1-1.14-4.03-2.82-5.28
				c-1.69-1.25-3.84-1.68-5.87-1.17c-39.22,9.8-54.62,34.54-60.64,53.56c-4.11,13.02-4.2,24.49-3.55,31.82
				c0.29,3.24,0.78,6.3,1.44,9.09c-17.27-3.91-37.73-17.55-38.5-51.37c-0.74-32.95,15.07-48.01,35.1-67.07
				c23.3-22.18,49.51-47.14,52.71-105.37c11.61,7.35,31.65,21.27,50.96,40.54C273.738,133.017,286.948,150.917,295.878,169.127z"/>
			<path style="fill:#CC8927;" d="M234.858,326.997v2.43c-8.41,1.79-16.09,6.5-21.45,13.51c-5.36-7.01-13.05-11.72-21.46-13.51
				v-2.43c0-11.83,9.63-21.46,21.46-21.46c5.73,0,11.11,2.24,15.17,6.29C232.628,315.877,234.858,321.267,234.858,326.997z"/>
			<path style="fill:#E29E30;" d="M250.688,345.307l32.36,13.61c-6.4,3.84-11.67,9.67-14.78,17.06c-3.11,7.39-3.58,15.23-1.86,22.49
				l-32.36-13.61c-2.64-1.11-4.98-2.7-6.94-4.68c-1.96-1.98-3.52-4.34-4.61-6.99c-1.05-2.59-1.57-5.29-1.59-8
				c0-0.14,0.01-0.29,0-0.43c0.05-2.71,0.6-5.42,1.68-7.99C227.178,345.857,239.778,340.717,250.688,345.307z"/>
			<path style="fill:#EABD7D;" d="M321.738,381.997c2.16,5.31,2.13,11.14-0.09,16.43c-4.59,10.9-17.19,16.04-28.09,11.45
				c-8.2-3.44-13.14-11.41-13.14-19.79c0-2.78,0.54-5.59,1.68-8.3c4.58-10.9,17.19-16.04,28.09-11.46
				C315.468,372.547,319.568,376.697,321.738,381.997z"/>
			<path style="fill:#EABD7D;" d="M144.718,381.787c4.58,10.91-0.56,23.51-11.46,28.09c-2.71,1.14-5.53,1.68-8.3,1.68
				c-8.38,0-16.35-4.94-19.8-13.13c-2.22-5.29-2.25-11.12-0.08-16.43c2.16-5.3,6.26-9.45,11.54-11.67
				C127.528,365.747,140.128,370.887,144.718,381.787z"/>
			<path style="fill:#E29E30;" d="M205.898,364.757c0,0.14,0,0.29,0,0.43c-0.01,2.71-0.54,5.41-1.59,8
				c-2.16,5.3-6.27,9.45-11.55,11.67l-32.36,13.61c1.72-7.26,1.25-15.1-1.86-22.49c-3.1-7.39-8.38-13.22-14.77-17.06l32.36-13.61
				c2.71-1.14,5.52-1.68,8.29-1.68c8.38,0,16.35,4.94,19.8,13.14C205.298,359.337,205.858,362.047,205.898,364.757z"/>
			<path style="fill:#4D4D4D;" d="M335.628,376.337c3.68,9.02,3.62,18.92-0.15,27.9c-5.86,13.93-19.42,22.32-33.66,22.32
				c-2.35,0-4.72-0.23-7.08-0.7c-2.35-0.47-4.7-1.18-7-2.15l-59.5-25.02c-5.96-2.51-11.02-6.46-14.83-11.46
				c-1.91,2.5-4.13,4.74-6.62,6.66c-2.48,1.93-5.24,3.55-8.21,4.8l-59.5,25.02h-0.01c0,0-9.38,2.85-14.08,2.85
				c-14.24,0-27.8-8.39-33.65-22.32c-3.78-8.98-3.83-18.88-0.15-27.9c3.67-9.02,10.64-16.06,19.62-19.84l59.5-25.02
				c2.19-0.92,4.41-1.6,6.64-2.07v-2.41c0-20.1,16.36-36.46,36.46-36.46c9.73,0,18.89,3.8,25.78,10.69
				c6.88,6.88,10.67,16.03,10.67,25.77v2.41c2.24,0.47,4.46,1.15,6.64,2.07l59.5,25.02
				C324.978,360.277,331.948,367.317,335.628,376.337z M321.648,398.427c2.22-5.29,2.25-11.12,0.09-16.43
				c-2.17-5.3-6.27-9.45-11.55-11.67c-10.9-4.58-23.51,0.56-28.09,11.46c-1.14,2.71-1.68,5.52-1.68,8.3
				c0,8.38,4.94,16.35,13.14,19.79C304.458,414.467,317.058,409.327,321.648,398.427z M283.048,358.917l-32.36-13.61
				c-10.91-4.59-23.51,0.55-28.1,11.46c-1.08,2.57-1.63,5.28-1.68,7.99c0.01,0.14,0,0.29,0,0.43c0.02,2.71,0.54,5.41,1.59,8
				c1.09,2.65,2.65,5.01,4.61,6.99c1.96,1.98,4.3,3.57,6.94,4.68l32.36,13.61c-1.72-7.26-1.25-15.1,1.86-22.49
				C271.378,368.587,276.648,362.757,283.048,358.917z M234.858,329.427v-2.43c0-5.73-2.23-11.12-6.28-15.17
				c-4.06-4.05-9.44-6.29-15.17-6.29c-11.83,0-21.46,9.63-21.46,21.46v2.43c8.41,1.79,16.1,6.5,21.46,13.51
				C218.768,335.927,226.448,331.217,234.858,329.427z M205.898,365.187c0-0.14,0-0.29,0-0.43c-0.04-2.71-0.6-5.42-1.68-7.99
				c-3.45-8.2-11.42-13.14-19.8-13.14c-2.77,0-5.58,0.54-8.29,1.68l-32.36,13.61c6.39,3.84,11.67,9.67,14.77,17.06
				c3.11,7.39,3.58,15.23,1.86,22.49l32.36-13.61c5.28-2.22,9.39-6.37,11.55-11.67C205.358,370.597,205.888,367.897,205.898,365.187
				z M133.258,409.877c10.9-4.58,16.04-17.18,11.46-28.09c-4.59-10.9-17.19-16.04-28.1-11.46c-5.28,2.22-9.38,6.37-11.54,11.67
				c-2.17,5.31-2.14,11.14,0.08,16.43c3.45,8.19,11.42,13.13,19.8,13.13C127.728,411.557,130.548,411.017,133.258,409.877z"/>
			<path style="fill:#4D4D4D;" d="M266.238,105.757c41.5,41.31,61.2,87.34,56.96,133.13c-3.02,32.71-20.15,50.24-33.98,59.17
				c-14.91,9.63-29.13,11.5-29.73,11.57c-2.14,0.27-4.28-0.46-5.8-1.98c-1.53-1.51-2.27-3.65-2.02-5.78
				c2.94-24.88-5.96-34.24-16.25-45.08c-8.32-8.75-17.6-18.52-20.67-36.2c-27.26,9.28-38.42,27.59-42.95,41.92
				c-6.31,19.95-1.85,37.2,0.91,40.39c1.79,2.07,2.21,4.99,1.07,7.49c-1.14,2.49-3.62,4.09-6.36,4.09
				c-29.89,0-62.54-20.76-63.57-66.33c-0.89-39.14,18.7-57.79,39.44-77.53c23.93-22.79,48.68-46.35,48.68-107.37
				c0-2.46,1.29-4.74,3.41-6.01c2.11-1.26,4.73-1.32,6.9-0.16C203.618,57.797,235.318,74.987,266.238,105.757z M309.258,237.597
				c2.13-22.98-2.37-46.02-13.38-68.47c-8.93-18.21-22.14-36.11-39.27-53.2c-19.31-19.27-39.35-33.19-50.96-40.54
				c-3.2,58.23-29.41,83.19-52.71,105.37c-20.03,19.06-35.84,34.12-35.1,67.07c0.77,33.82,21.23,47.46,38.5,51.37
				c-0.66-2.79-1.15-5.85-1.44-9.09c-0.65-7.33-0.56-18.8,3.55-31.82c6.02-19.02,21.42-43.76,60.64-53.56
				c2.03-0.51,4.18-0.08,5.87,1.17c1.68,1.25,2.72,3.18,2.82,5.28c0.9,18.2,8.72,26.43,17.78,35.97
				c9.89,10.4,20.94,22.03,20.67,46.53C279.948,289.237,305.718,275.857,309.258,237.597z"/>
			<path style="fill:#4D4D4D;" d="M166.958,43.877c8.64,29.08,19.38,65.27-27.52,104.31c-1.37,1.13-3.07,1.73-4.8,1.73
				c-0.78,0-1.56-0.12-2.32-0.37c-2.45-0.8-4.32-2.8-4.95-5.3c-1.26-4.98-3.55-10.93-5.98-17.22
				c-11.86-30.77-29.79-77.25,27.74-125.05c2.4-1.99,5.78-2.29,8.5-0.75c2.71,1.55,4.18,4.61,3.7,7.69
				C159.678,19.357,163.218,31.267,166.958,43.877z M138.218,129.077c29.67-29.39,22.21-54.48,14.36-80.93
				c-2.38-8.01-4.68-15.77-5.86-23.47c-34.64,36.52-21.82,69.76-11.33,96.95C136.368,124.167,137.328,126.647,138.218,129.077z"/>
		</g>
		<g>
		</g>
	</g>
</g>
<g>
</g>
<g>
</g>
<g>
</g>
<g>
</g>
<g>
</g>
<g>
</g>
<g>
</g>
<g>
</g>
<g>
</g>
<g>
</g>
<g>
</g>
<g>
</g>
<g>
</g>
<g>
</g>
<g>
</g>
</svg>
