<?xml version="1.0" encoding="iso-8859-1"?>
<!-- Generator: Adobe Illustrator 18.0.0, SVG Export Plug-In . SVG Version: 6.00 Build 0)  -->
<!DOCTYPE svg PUBLIC "-//W3C//DTD SVG 1.1//EN" "http://www.w3.org/Graphics/SVG/1.1/DTD/svg11.dtd">
<svg version="1.1" id="Capa_1" xmlns="http://www.w3.org/2000/svg" xmlns:xlink="http://www.w3.org/1999/xlink" x="0px" y="0px"
	 viewBox="0 0 148.762 148.762" style="enable-background:new 0 0 148.762 148.762;" xml:space="preserve">
<g>
	<g>
		<g>
			<path style="fill:#9B6233;" d="M61.719,137.038l-26.192-16.494l18.57-11.489l1.45-0.897c3.139-1.943,7.634-1.798,11.027,0.354
				c1.732,1.099,2.961,2.583,3.588,4.188c0.369,0.95,0.528,1.944,0.452,2.925c-0.051,0.677-0.211,1.347-0.492,1.994L61.719,137.038z
				"/>
			<path style="fill:#764424;" d="M70.39,116.877c-0.073,0.25-0.163,0.499-0.27,0.742l-8.4,19.421l-17.836-11.232
				c5.235,0.64,11.529-0.325,17.515-3.025C64.975,121.169,68.019,119.126,70.39,116.877z"/>
			<g>
				<path style="fill:#BD926B;" d="M60.723,138.392c-4.719,5.465-14.439,6.156-21.711,1.543c-7.272-4.612-9.342-12.782-4.624-18.247
					c4.719-5.465,14.439-6.156,21.711-1.543C63.372,124.757,65.442,132.927,60.723,138.392z"/>
				<path style="fill:#ECC6A1;" d="M59.921,137.883c-4.431,5.133-13.559,5.781-20.389,1.449c-6.829-4.332-8.773-12.004-4.342-17.136
					c4.431-5.133,13.56-5.781,20.389-1.449C62.408,125.079,64.352,132.751,59.921,137.883z"/>
				<path style="fill:#ECB180;" d="M58.317,136.866c-3.856,4.467-11.801,5.031-17.744,1.262c-5.943-3.77-7.635-10.447-3.779-14.913
					c3.856-4.467,11.8-5.031,17.744-1.262C60.482,125.723,62.173,132.4,58.317,136.866z"/>
				<path style="fill:#ECC6A1;" d="M57.114,136.103c-3.425,3.967-10.481,4.468-15.76,1.12c-5.279-3.349-6.781-9.279-3.356-13.246
					c3.425-3.967,10.481-4.469,15.76-1.12C59.036,126.205,60.539,132.136,57.114,136.103z"/>
				<path style="fill:#ECB180;" d="M55.911,135.339c-2.994,3.468-9.162,3.906-13.776,0.98s-5.928-8.111-2.934-11.578
					c2.994-3.468,9.162-3.906,13.776-0.979C57.591,126.688,58.905,131.872,55.911,135.339z"/>
				<path style="fill:#ECC6A1;" d="M54.309,134.324c-2.42,2.803-7.405,3.157-11.135,0.791c-3.729-2.365-4.791-6.556-2.371-9.358
					c2.42-2.803,7.405-3.157,11.135-0.791C55.667,127.33,56.729,131.521,54.309,134.324z"/>
				<path style="fill:#ECB180;" d="M51.285,132.406c-1.336,1.548-4.09,1.743-6.149,0.438c-2.06-1.307-2.646-3.621-1.31-5.169
					c1.337-1.548,4.09-1.744,6.15-0.438C52.036,128.543,52.622,130.858,51.285,132.406z"/>
			</g>
			<path style="fill:#B07031;" d="M70.614,115.625c-2.878,0.021-6.703-0.91-10.497-2.722c-2.398-1.146-4.455-2.485-6.021-3.849
				l1.45-0.897c3.139-1.943,7.634-1.798,11.027,0.354c1.732,1.099,2.961,2.583,3.588,4.188
				C70.531,113.651,70.69,114.645,70.614,115.625z"/>
		</g>
		<g>
			<path style="fill:#9B6233;" d="M98.452,137.038l26.191-16.494l-18.57-11.489l-1.45-0.897c-3.139-1.943-7.634-1.798-11.027,0.354
				c-1.731,1.099-2.961,2.583-3.588,4.188c-0.369,0.95-0.528,1.944-0.452,2.925c0.051,0.677,0.211,1.347,0.493,1.994L98.452,137.038
				z"/>
			<path style="fill:#764424;" d="M89.78,116.877c0.073,0.25,0.163,0.499,0.27,0.742l8.4,19.421l17.836-11.232
				c-5.235,0.64-11.528-0.325-17.515-3.025C95.195,121.169,92.151,119.126,89.78,116.877z"/>
			<g>
				<path style="fill:#BD926B;" d="M99.447,138.392c4.719,5.465,14.439,6.156,21.711,1.543c7.273-4.612,9.342-12.782,4.624-18.247
					c-4.719-5.465-14.439-6.156-21.712-1.543C96.798,124.757,94.729,132.927,99.447,138.392z"/>
				<path style="fill:#ECC6A1;" d="M100.249,137.883c4.431,5.133,13.56,5.781,20.389,1.449c6.83-4.332,8.774-12.004,4.342-17.136
					c-4.431-5.133-13.56-5.781-20.389-1.449S95.818,132.751,100.249,137.883z"/>
				<path style="fill:#ECB180;" d="M101.853,136.866c3.856,4.467,11.801,5.031,17.744,1.262c5.943-3.77,7.635-10.447,3.778-14.913
					c-3.856-4.467-11.8-5.031-17.744-1.262C99.689,125.723,97.997,132.4,101.853,136.866z"/>
				<path style="fill:#ECC6A1;" d="M103.056,136.103c3.425,3.967,10.481,4.468,15.76,1.12c5.279-3.349,6.781-9.279,3.356-13.246
					c-3.425-3.967-10.481-4.469-15.76-1.12C101.134,126.205,99.631,132.136,103.056,136.103z"/>
				<path style="fill:#ECB180;" d="M104.259,135.339c2.994,3.468,9.162,3.906,13.776,0.98c4.614-2.927,5.928-8.111,2.934-11.578
					c-2.994-3.468-9.162-3.906-13.776-0.979C102.579,126.688,101.266,131.872,104.259,135.339z"/>
				<path style="fill:#ECC6A1;" d="M105.861,134.324c2.42,2.803,7.405,3.157,11.135,0.791c3.729-2.365,4.791-6.556,2.371-9.358
					c-2.42-2.803-7.405-3.157-11.135-0.791C104.503,127.33,103.441,131.521,105.861,134.324z"/>
				<path style="fill:#ECB180;" d="M108.885,132.406c1.336,1.548,4.09,1.743,6.15,0.438c2.06-1.307,2.646-3.621,1.31-5.169
					c-1.337-1.548-4.09-1.744-6.15-0.438C108.134,128.543,107.548,130.858,108.885,132.406z"/>
			</g>
			<path style="fill:#B07031;" d="M89.556,115.625c2.878,0.021,6.703-0.91,10.497-2.722c2.398-1.146,4.455-2.485,6.021-3.849
				l-1.45-0.897c-3.139-1.943-7.634-1.798-11.027,0.354c-1.731,1.099-2.961,2.583-3.588,4.188
				C89.639,113.651,89.48,114.645,89.556,115.625z"/>
		</g>
		<g>
			<path style="fill:#9B6233;" d="M96.152,134.857l-32.502,0.095l6.953-18.703l0.543-1.46c1.175-3.163,4.889-5.338,9.11-5.338
				c2.154,0,4.173,0.566,5.791,1.537c0.956,0.576,1.774,1.294,2.393,2.121c0.429,0.569,0.765,1.19,0.988,1.854L96.152,134.857z"/>
			<path style="fill:#764424;" d="M96.152,134.857l-32.502,0.095l5.004-13.462c2.885,0.356,6.218,0.277,9.683-0.318
				c4.795-0.827,8.913-2.485,11.671-4.493L96.152,134.857z"/>
			<g>
				<ellipse style="fill:#BD926B;" cx="79.91" cy="136.452" rx="16.381" ry="12.311"/>
				<ellipse style="fill:#ECC6A1;" cx="79.91" cy="136.452" rx="15.383" ry="11.561"/>
				<ellipse style="fill:#ECB180;" cx="79.91" cy="136.452" rx="13.388" ry="10.061"/>
				<ellipse style="fill:#ECC6A1;" cx="79.91" cy="136.452" rx="11.891" ry="8.936"/>
				<ellipse style="fill:#ECB180;" cx="79.91" cy="136.452" rx="10.394" ry="7.812"/>
				<ellipse style="fill:#ECC6A1;" cx="79.91" cy="136.452" rx="8.401" ry="6.313"/>
				<ellipse style="fill:#ECB180;" cx="79.91" cy="136.452" rx="4.64" ry="3.487"/>
			</g>
			<path style="fill:#B07031;" d="M88.44,113.109c-2.299,1.484-6.02,2.686-10.326,3.164c-2.723,0.302-5.306,0.273-7.511-0.024
				l0.543-1.46c1.175-3.163,4.889-5.338,9.11-5.338c2.154,0,4.173,0.566,5.791,1.537C87.003,111.564,87.821,112.282,88.44,113.109z"
				/>
		</g>
	</g>
	<path style="fill:#F0B847;" d="M117.8,64.371c-7.232,10.887-5.179,21.662-8.115,33.891c-1.247,5.193-4.336,8.654-8.354,10.93
		c-6.396,3.628-15.141,4.254-22.529,4.084c-8.881-0.204-18.1-1.39-25.566-6.209c-0.098-0.063-0.193-0.127-0.292-0.191
		c-7.304-4.872-12.319-14.027-10.003-22.484c0.748-2.731,2.19-5.232,2.986-7.951c0.796-2.718,0.825-5.925-1-8.091
		c2.851,3.387,4.307,7.855,4.073,12.269c1.382-9.916,10.794-16.425,8.224-27.431c-0.981-4.201-3.442-7.869-5.463-11.68
		c-4.429-8.344-6.76-18.742-2.4-27.123C52.029,9.253,56.935,5.421,58.956,0c2.307,6.794,4.707,13.756,9.303,19.267
		c2.321,2.785,5.137,5.113,7.601,7.771c6.312,6.81,10.126,15.594,12.584,24.545c4.389-1.257,4.954-7.163,4.636-11.72
		c2.321,0.955,3.567,3.52,4.042,5.983c0.475,2.464,0.397,5.028,1.098,7.439c0.793,2.729,2.522,5.057,3.936,7.534
		c0.417,0.726,0.807,1.467,1.135,2.235c1.477,3.435,1.713,7.237,1.79,10.996c0.406-2.289,2.758-4.17,5.044-5.156
		C112.897,67.699,116.129,66.885,117.8,64.371z"/>
	<path style="fill:#E88124;" d="M100.487,95.782c0.268,3.909,1.851,7.76,1.271,11.635c-0.09,0.607-0.236,1.201-0.427,1.774
		c-6.396,3.628-15.141,4.254-22.529,4.084c-8.881-0.204-18.1-1.39-25.566-6.209c-0.098-0.063-0.193-0.127-0.292-0.191
		c-0.122-0.536-0.207-1.085-0.25-1.642c-0.289-3.745,0.729-8.614-2.596-10.359c1.573,0.748,3.143,1.493,4.715,2.241
		c-0.737-4.766,1.7-9.372,3.832-13.695c3.618-7.338,6.63-15.366,5.824-23.505c-1.281-12.966-12.046-24.813-9.015-37.481
		c3.079,8.924,8.049,17.193,14.488,24.099c0.003-2.05,0.003-4.1,0.005-6.147c6.98,6.447,14.486,14.027,14.546,23.526
		c1.607-2.413,3.212-4.826,4.816-7.24c1.499,10.234,3,20.467,4.498,30.701c-0.263-2.278,2.371-3.737,4.614-4.209
		c2.244-0.473,4.925-0.884,5.928-2.946C102.256,85.192,100.122,90.395,100.487,95.782z"/>
	<path style="fill:#E88124;" d="M112.27,57.158c-1.362,0.877-2.871,1.744-3.546,3.216c-1.054-3.119,0.75-6.513,3.05-8.868
		c2.3-2.356,5.163-4.19,7.049-6.89c0.708-1.014,1.431-2.248,2.655-2.418C121.91,48.332,117.44,53.829,112.27,57.158z"/>
	<path style="fill:#E88124;" d="M35.615,41.57c-0.327-0.948-0.305-2.421,0.696-2.49c0.462-0.032,0.859,0.313,1.168,0.657
		c1.843,2.057,2.617,4.835,3.247,7.523c0.485,2.074,0.918,4.16,1.298,6.257C39.269,49.911,37.096,45.86,35.615,41.57z"/>
	<path style="fill:#E88124;" d="M26.611,68.001c-1.823-1.045-4.042-1.888-5.982-1.079c-0.576,1.49,0.305,3.215,1.587,4.169
		c1.282,0.955,2.883,1.342,4.408,1.82c3.648,1.146,7.093,2.937,10.126,5.264C34.356,73.964,30.815,70.412,26.611,68.001z"/>
</g>
<g>
</g>
<g>
</g>
<g>
</g>
<g>
</g>
<g>
</g>
<g>
</g>
<g>
</g>
<g>
</g>
<g>
</g>
<g>
</g>
<g>
</g>
<g>
</g>
<g>
</g>
<g>
</g>
<g>
</g>
</svg>
