<?xml version="1.0" encoding="iso-8859-1"?>
<!-- Generator: Adobe Illustrator 19.0.0, SVG Export Plug-In . SVG Version: 6.00 Build 0)  -->
<svg version="1.1" id="Layer_1" xmlns="http://www.w3.org/2000/svg" xmlns:xlink="http://www.w3.org/1999/xlink" x="0px" y="0px"
	 viewBox="0 0 512 512" style="enable-background:new 0 0 512 512;" xml:space="preserve">
<path style="fill:#EE4948;" d="M147.754,417.599c-31.526-20.46-53.126-52.188-54.111-94.686
	c-2.874-127.068,129.953-95.304,129.953-282.978c0,0,207.896,109.684,187.698,280.092c-5.308,44.576-29.353,76.946-62.055,97.572"/>
<path style="fill:#FED159;" d="M198.922,330.346c-1.734-29.738,10.465-63.616,55.736-94.14
	c3.265,66.247,58.244,76.768,58.244,124.431c0,0.059,0,0.119,0,0.178c-0.006,4.239-0.425,8.457-1.227,12.601l-15.374,44.182
	l-97.37-61.542L198.922,330.346z"/>
<polyline style="fill:#F2C386;" points="211.324,356.057 336.675,417.599 318.864,438.973 247.617,448.473 194.183,405.725 "/>
<path style="fill:#CC9758;" d="M154.701,417.599c-11.245-15.639-10.818-37.487,2.28-52.77c15.377-17.918,42.356-19.985,60.286-4.619
	c16.98,14.57,19.723,39.553,6.887,57.389"/>
<path style="fill:#F2C386;" d="M447.249,460.347c0,4.56-0.712,8.941-2.042,13.062c-5.51,17.218-21.659,29.686-40.705,29.686H107.5
	v-85.495h297.002C428.108,417.599,447.249,436.741,447.249,460.347z"/>
<g>
	<circle style="fill:#CC9758;" cx="216.743" cy="460.346" r="42.748"/>
	<circle style="fill:#CC9758;" cx="107.499" cy="460.346" r="42.748"/>
	<path style="fill:#CC9758;" d="M445.207,473.409c-5.51,17.218-21.659,29.686-40.705,29.686H107.5v-29.686H445.207z"/>
</g>
<path style="fill:#EE4948;" d="M94.455,92.293c-12.967,33.797-5.086,63.895,20.172,83.387
	c23.878-19.493,47.551-49.589,60.517-83.387c12.966-33.798,5.087-63.892-20.172-83.387C131.094,28.399,107.42,58.494,94.455,92.293z
	"/>
<path d="M384.333,212.173c16.266,35.057,22.361,70.992,18.117,106.802c-2.881,24.187-11.735,45.511-26.321,63.379
	c-3.11,3.809-2.542,9.42,1.268,12.53c1.654,1.35,3.645,2.007,5.626,2.007c2.583,0,5.144-1.117,6.904-3.275
	c16.758-20.532,26.922-44.936,30.208-72.54c4.639-39.14-1.971-78.303-19.646-116.4c-14.16-30.519-35.454-60.458-63.292-88.984
	c-3.435-3.521-9.074-3.59-12.594-0.154c-3.52,3.435-3.588,9.073-0.153,12.594C350.877,155.211,371.023,183.487,384.333,212.173z"/>
<path d="M142.425,206.16c-30.383,28.43-59.081,55.283-57.687,116.96c0.588,25.285,7.965,48.072,21.932,67.729
	c1.736,2.445,4.48,3.748,7.267,3.748c1.784,0,3.586-0.534,5.151-1.647c4.009-2.849,4.95-8.408,2.102-12.418
	c-11.868-16.704-18.142-36.159-18.644-57.819c-1.215-53.707,23.468-76.803,52.05-103.547c34.711-32.48,73.825-69.087,77.608-163.956
	c15.794,9.612,44.162,28.322,73.162,54.563c3.647,3.3,9.277,3.018,12.578-0.628c3.3-3.647,3.018-9.279-0.628-12.58
	c-45.21-40.91-87.775-63.562-89.565-64.506c-2.761-1.457-6.083-1.362-8.755,0.251c-2.673,1.611-4.307,4.505-4.307,7.627
	C214.69,138.541,177.953,172.916,142.425,206.16z"/>
<path d="M109.186,182.729c1.604,1.238,3.523,1.856,5.441,1.856c1.998,0,3.996-0.671,5.633-2.007
	c27.562-22.501,50.597-54.246,63.199-87.096c14.267-37.188,5.867-71.314-23.046-93.627c-3.277-2.529-7.867-2.466-11.073,0.152
	c-12.626,10.308-24.857,23.188-35.368,37.246c-2.945,3.939-2.14,9.52,1.8,12.466c3.941,2.946,9.521,2.139,12.466-1.8
	c8.072-10.796,17.218-20.812,26.732-29.301c18.054,17.234,22.295,41.282,11.86,68.484c-10.487,27.337-29.731,54.835-52.197,74.865
	c-18.059-17.233-22.3-41.281-11.864-68.485c2.293-5.978,5.016-12.016,8.09-17.948c2.264-4.366,0.559-9.742-3.807-12.005
	c-4.366-2.263-9.743-0.558-12.005,3.808c-3.381,6.519-6.378,13.17-8.907,19.766C71.872,126.29,80.272,160.416,109.186,182.729z"/>
<path d="M302.932,371.724c-0.935,4.828,2.223,9.501,7.051,10.435c0.571,0.11,1.14,0.164,1.702,0.164c4.181,0,7.91-2.958,8.734-7.216
	c0.915-4.73,1.383-9.534,1.389-14.292v-0.178c0-25.491-13.806-41.826-27.159-57.624c-14.505-17.161-29.502-34.906-31.097-67.246
	c-0.158-3.211-2.034-6.086-4.908-7.525c-2.872-1.438-6.301-1.216-8.965,0.579c-41.881,28.238-61.95,62.571-59.648,102.044
	c0.286,4.911,4.5,8.656,9.409,8.373c4.91-0.286,8.659-4.499,8.373-9.409c-1.684-28.88,11.678-54.856,39.751-77.375
	c5.252,28.654,20.128,46.257,33.483,62.058c12.823,15.171,22.951,27.154,22.951,46.126v0.166
	C303.991,364.425,303.634,368.099,302.932,371.724z"/>
<path d="M404.5,408.693h-65.757L216.61,348.731c-21.262-13.159-49.61-9.251-66.392,10.303
	c-12.023,14.028-15.422,32.872-9.917,49.659H107.5c-28.482,0-51.653,23.172-51.653,51.653C55.847,488.829,79.018,512,107.5,512
	h178.115c4.918,0,8.906-3.987,8.906-8.906c0-4.918-3.987-8.906-8.906-8.906h-29.897c7.888-9.072,12.681-20.905,12.681-33.842
	c0-12.937-4.792-24.77-12.681-33.842H404.5c18.661,0,33.842,15.181,33.842,33.842c0,18.661-15.181,33.842-33.842,33.842h-89.2
	c-4.918,0-8.906,3.987-8.906,8.906c0,4.918,3.987,8.906,8.906,8.906h89.2c28.482,0,51.653-23.172,51.653-51.653
	C456.154,431.865,432.982,408.693,404.5,408.693z M239.336,379.731l58.991,28.962H238.49
	C241.524,399.272,241.762,389.191,239.336,379.731z M163.738,370.629c12.15-14.159,33.563-15.799,47.729-3.661
	c12.107,10.389,15.133,27.987,7.761,41.724h-59.584C153.052,396.504,154.503,381.404,163.738,370.629z M177.77,426.505
	c-7.888,9.072-12.681,20.905-12.681,33.842c0,12.937,4.792,24.77,12.681,33.842h-31.298c7.888-9.072,12.681-20.905,12.681-33.842
	c0-12.937-4.792-24.77-12.681-33.842H177.77z M73.658,460.347c0-18.661,15.181-33.842,33.842-33.842s33.842,15.181,33.842,33.842
	c0,18.661-15.181,33.842-33.842,33.842S73.658,479.006,73.658,460.347z M250.586,460.347c0,18.661-15.181,33.842-33.842,33.842
	s-33.842-15.181-33.842-33.842c0-18.661,15.181-33.842,33.842-33.842S250.586,441.686,250.586,460.347z"/>
<g>
</g>
<g>
</g>
<g>
</g>
<g>
</g>
<g>
</g>
<g>
</g>
<g>
</g>
<g>
</g>
<g>
</g>
<g>
</g>
<g>
</g>
<g>
</g>
<g>
</g>
<g>
</g>
<g>
</g>
</svg>
