<?xml version="1.0" encoding="iso-8859-1"?>
<!-- Generator: Adobe Illustrator 19.0.0, SVG Export Plug-In . SVG Version: 6.00 Build 0)  -->
<svg version="1.1" id="Layer_1" xmlns="http://www.w3.org/2000/svg" xmlns:xlink="http://www.w3.org/1999/xlink" x="0px" y="0px"
	 viewBox="0 0 512 512" style="enable-background:new 0 0 512 512;" xml:space="preserve">
<path style="fill:#EE4948;" d="M142.486,428.572c-33.06-21.455-55.71-54.727-56.744-99.291
	C82.73,196.032,222.017,229.341,222.017,32.538c0,0,218.008,115.018,196.827,293.716c-5.566,46.745-30.782,80.689-65.074,102.317"/>
<path style="fill:#FED159;" d="M196.144,337.075c-1.818-31.184,10.975-66.71,58.447-98.72
	c3.424,69.469,61.077,80.501,61.077,130.484c0,0.062,0,0.125,0,0.186c-0.006,4.446-0.445,8.867-1.286,13.214l-16.122,46.332
	l-102.106-64.535L196.144,337.075z"/>
<polygon style="fill:#666666;" points="340.601,422.344 321.923,444.757 265.976,452.216 247.211,454.719 191.178,409.892 
	209.146,357.806 287.767,396.406 "/>
<path style="fill:#606060;" d="M340.601,422.344l-18.678,22.413l-44.752,15.167l-11.194-7.708l-43.37-29.872
	c0,0,37.269,7.671,65.161-25.938L340.601,422.344z"/>
<path style="fill:#666666;" d="M456.549,467.173c0,4.781-0.748,9.376-2.142,13.697C448.63,498.925,431.695,512,411.722,512H100.274
	v-89.655h311.448C436.476,422.345,456.549,442.419,456.549,467.173z"/>
<path style="fill:#4D4D4D;" d="M149.771,422.345c-11.791-16.399-11.344-39.311,2.391-55.337
	c16.125-18.79,44.416-20.956,63.218-4.844c17.806,15.278,20.683,41.477,7.222,60.18"/>
<path style="fill:#606060;" d="M454.407,480.87C448.63,498.925,431.695,512,411.722,512H100.274v-31.13H454.407z"/>
<g>
	<circle style="fill:#4D4D4D;" cx="214.837" cy="467.169" r="44.827"/>
	<circle style="fill:#4D4D4D;" cx="100.278" cy="467.169" r="44.827"/>
</g>
<path style="fill:#EE4948;" d="M86.596,87.442c-13.598,35.442-5.333,67.002,21.153,87.442c25.039-20.441,49.863-52.001,63.46-87.442
	S176.543,20.441,150.055,0C125.017,20.441,100.191,51.999,86.596,87.442z"/>
<g>
</g>
<g>
</g>
<g>
</g>
<g>
</g>
<g>
</g>
<g>
</g>
<g>
</g>
<g>
</g>
<g>
</g>
<g>
</g>
<g>
</g>
<g>
</g>
<g>
</g>
<g>
</g>
<g>
</g>
</svg>
