<?xml version="1.0" encoding="iso-8859-1"?>
<!-- Generator: Adobe Illustrator 18.0.0, SVG Export Plug-In . SVG Version: 6.00 Build 0)  -->
<!DOCTYPE svg PUBLIC "-//W3C//DTD SVG 1.1//EN" "http://www.w3.org/Graphics/SVG/1.1/DTD/svg11.dtd">
<svg version="1.1" id="Capa_1" xmlns="http://www.w3.org/2000/svg" xmlns:xlink="http://www.w3.org/1999/xlink" x="0px" y="0px"
	 viewBox="0 0 413.091 413.091" style="enable-background:new 0 0 413.091 413.091;" xml:space="preserve">
<g>
	<path style="fill:#F9C146;" d="M194.551,55.498c0,117.262-89.928,105.358-88.123,184.736c1.019,44.816,33.92,59.49,56.569,59.49
		c-10.146-11.727-14.629-78.955,53.371-95.955c2.229,45.139,44,39,37.834,91.167c0,0,52.252-6.531,57.611-64.446
		C321.688,123.761,194.551,55.498,194.551,55.498z"/>
	<path style="fill:#F15A24;" d="M130.224,134.669L130.224,134.669C193.5,82,143.5,38,149.5,0l0,0l0,0
		C84.5,54,122.575,104.307,130.224,134.669L130.224,134.669z"/>
	<path style="fill:#B2863F;" d="M385.443,400.995l-84.73-50.13l-1.206-9.923c-0.433-3.563-3.659-6.101-7.236-5.669
		c-3.563,0.433-6.102,3.673-5.668,7.237l0.001,0.008l-67.294-39.814l14.449-8.549c3.09-1.828,4.112-5.814,2.284-8.904
		c-1.827-3.09-5.816-4.112-8.903-2.284l-14.095,8.339v-12.913c0-3.59-2.91-6.5-6.5-6.5s-6.5,2.91-6.5,6.5v12.913l-14.096-8.339
		c-3.085-1.827-7.075-0.806-8.903,2.284c-1.828,3.09-0.806,7.076,2.284,8.904l14.45,8.549l-63.559,37.604
		c-0.037-3.003-2.16-5.676-5.223-6.289c-3.524-0.705-6.944,1.578-7.649,5.098l-2,9.99l-87.702,51.888
		c-3.09,1.828-4.112,5.814-2.284,8.904c1.213,2.051,3.378,3.191,5.6,3.191c1.125,0,2.266-0.292,3.304-0.907l46.223-27.347
		l11.337,4.863c0.836,0.358,1.704,0.528,2.56,0.528c2.521,0,4.92-1.476,5.977-3.939c1.415-3.299-0.112-7.121-3.411-8.536
		l-2.602-1.116l75.961-44.941l-38.52,40.896l-4.513-5.149c-2.364-2.699-6.473-2.97-9.172-0.604c-2.7,2.366-2.97,6.473-0.604,9.173
		l5.335,6.087l-18.871,20.035c-2.462,2.613-2.339,6.727,0.274,9.188c2.614,2.461,6.729,2.339,9.188-0.275l22.942-24.357
		c0.005-0.006,0.011-0.012,0.016-0.017l13.983-14.846l13.517,1.048c0.171,0.013,0.34,0.02,0.509,0.02c3.362,0,6.21-2.59,6.474-5.998
		c0.277-3.579-2.399-6.706-5.979-6.983l-3.076-0.238l32.545-34.552l-19.584,79.92c-0.854,3.487,1.279,7.006,4.767,7.86
		c3.49,0.855,7.006-1.28,7.86-4.766l19.144-78.122l11.836,48.302c0.001,0.005,0.002,0.01,0.004,0.014l7.304,29.806
		c0.728,2.967,3.384,4.955,6.309,4.954c0.512,0,1.032-0.061,1.552-0.188c3.487-0.854,5.621-4.374,4.767-7.86l-6.564-26.788
		l6.494-8.615c2.161-2.867,1.589-6.942-1.278-9.103c-2.864-2.16-6.941-1.588-9.103,1.278l-0.107,0.142l-9.026-36.834l47.786,50.734
		l-1.052,0.042c-3.588,0.142-6.38,3.165-6.238,6.752c0.139,3.5,3.02,6.243,6.49,6.243c0.087,0,0.175-0.002,0.262-0.005l12.352-0.489
		l21.331,22.647c1.279,1.358,3.004,2.044,4.732,2.043c1.599,0,3.2-0.586,4.456-1.768c2.613-2.461,2.736-6.575,0.274-9.188
		l-66.345-70.438l48.5,28.695c0,0,0.001,0.001,0.002,0.001l27.447,16.239c-2.149,1.118-3.588,3.391-3.505,5.973
		c0.114,3.517,3,6.29,6.493,6.29c0.071,0,0.143-0.001,0.214-0.003l16.613-0.537l40.279,23.831c3.087,1.827,7.076,0.806,8.904-2.284
		C389.555,406.809,388.533,402.822,385.443,400.995z"/>
</g>
<g>
</g>
<g>
</g>
<g>
</g>
<g>
</g>
<g>
</g>
<g>
</g>
<g>
</g>
<g>
</g>
<g>
</g>
<g>
</g>
<g>
</g>
<g>
</g>
<g>
</g>
<g>
</g>
<g>
</g>
</svg>
