<?xml version="1.0" encoding="iso-8859-1"?>
<!-- Generator: Adobe Illustrator 19.0.0, SVG Export Plug-In . SVG Version: 6.00 Build 0)  -->
<svg version="1.1" id="Layer_1" xmlns="http://www.w3.org/2000/svg" xmlns:xlink="http://www.w3.org/1999/xlink" x="0px" y="0px"
	 viewBox="0 0 504.125 504.125" style="enable-background:new 0 0 504.125 504.125;" xml:space="preserve">
<g>
	<path style="fill:#5E3E27;" d="M346.505,471.142l-53.784-140.54h-52.027l60.432,157.909c4.781,12.524,18.834,18.794,31.366,13.989
		C345.032,497.719,351.31,483.675,346.505,471.142z"/>
	<path style="fill:#5E3E27;" d="M157.616,471.142l53.768-140.54h52.027l-60.424,157.917c-4.781,12.524-18.834,18.794-31.366,13.989
		C159.073,497.719,152.811,483.675,157.616,471.142z"/>
</g>
<path style="fill:#A57450;" d="M252.509,305.113c9.492,9.492,9.492,24.875,0,34.367L95.814,496.175
	c-9.476,9.476-24.891,9.476-34.351,0l0,0c-9.492-9.492-9.492-24.867,0-34.367l156.696-156.696
	C227.626,295.621,243.018,295.621,252.509,305.113L252.509,305.113z"/>
<g>
	<path style="fill:#825E40;" d="M252.509,305.113L252.509,305.113c9.492,9.492,9.492,24.875,0,34.367L95.814,496.175
		c-9.476,9.476-24.891,9.476-34.351,0l0,0c-9.492-9.492-9.492-24.867,0-34.367"/>
	<path style="fill:#825E40;" d="M251.611,305.113c-9.507,9.492-9.507,24.875,0,34.367l156.68,156.696
		c9.492,9.476,24.891,9.476,34.383,0l0,0c9.476-9.492,9.476-24.867,0-34.367L285.971,305.113
		C276.479,295.621,261.087,295.621,251.611,305.113L251.611,305.113z"/>
</g>
<path style="fill:#A57450;" d="M252.06,284.562c13.399,0,24.292,10.878,24.292,24.308v170.126c0,13.399-10.894,24.292-24.292,24.292
	l0,0c-13.414,0-24.308-10.87-24.308-24.292l0.016-170.126C227.752,295.44,238.646,284.562,252.06,284.562L252.06,284.562z"/>
<path style="fill:#825E40;" d="M252.06,284.562L252.06,284.562c13.399,0,24.292,10.878,24.292,24.308v170.126
	c0,13.399-10.894,24.292-24.292,24.292l0,0c-13.414,0-24.308-10.87-24.308-24.292"/>
<path style="fill:#FF7F00;" d="M252.289,91.136c-41.771,8.917-73.862,61.44-73.862,125.086s32.091,85.252,73.862,88.615V91.136z"/>
<path style="fill:#FF4800;" d="M251.864,91.136c41.74,8.917,73.83,61.44,73.83,125.086s-32.091,85.252-73.83,88.615V91.136z"/>
<path style="fill:#FFBC00;" d="M252.218,166.723c-27.002,5.734-47.742,39.676-47.742,80.825c0,41.173,20.74,55.123,47.742,57.289
	V166.723z"/>
<path style="fill:#FF7F00;" d="M251.934,166.723c26.971,5.734,47.695,39.676,47.695,80.825c0,41.173-20.724,55.123-47.695,57.289
	V166.723z"/>
<path style="fill:#B73D13;" d="M252.06,284.562c-10.508,0-19.401,6.727-22.772,16.085c7.058,2.143,14.627,3.482,22.567,4.143v0.047
	c0.079-0.016,0.158-0.016,0.213-0.032c0.063,0.016,0.142,0.016,0.213,0.032v-0.047c7.908-0.662,15.478-2.001,22.536-4.143
	C271.461,291.281,262.568,284.562,252.06,284.562z"/>
<g>
	<circle style="fill:#FF7F00;" cx="166.1" cy="305.073" r="8.042"/>
	<circle style="fill:#FF7F00;" cx="138.239" cy="207.47" r="17.692"/>
	<circle style="fill:#FF7F00;" cx="153.756" cy="270.202" r="7.507"/>
</g>
<g>
	<circle style="fill:#FFBC00;" cx="161.791" cy="234.26" r="2.686"/>
	<circle style="fill:#FFBC00;" cx="146.825" cy="138.87" r="11.264"/>
	<circle style="fill:#FFBC00;" cx="352.097" cy="287.35" r="16.085"/>
	<circle style="fill:#FFBC00;" cx="369.269" cy="209.054" r="8.578"/>
	<circle style="fill:#FFBC00;" cx="260.985" cy="33.241" r="21.449"/>
</g>
<g>
	<circle style="fill:#FF7F00;" cx="339.258" cy="129.741" r="10.72"/>
	<circle style="fill:#FF7F00;" cx="314.052" cy="301.82" r="2.678"/>
</g>
<g>
	<circle style="fill:#FFBC00;" cx="191.826" cy="86.323" r="5.9"/>
	<circle style="fill:#FFBC00;" cx="322.086" cy="79.344" r="2.143"/>
	<circle style="fill:#FFBC00;" cx="233.628" cy="63.803" r="4.829"/>
	<circle style="fill:#FFBC00;" cx="211.668" cy="9.657" r="9.657"/>
</g>
<g>
</g>
<g>
</g>
<g>
</g>
<g>
</g>
<g>
</g>
<g>
</g>
<g>
</g>
<g>
</g>
<g>
</g>
<g>
</g>
<g>
</g>
<g>
</g>
<g>
</g>
<g>
</g>
<g>
</g>
</svg>
