<?xml version="1.0" encoding="iso-8859-1"?>
<!-- Generator: Adobe Illustrator 19.0.0, SVG Export Plug-In . SVG Version: 6.00 Build 0)  -->
<svg version="1.1" id="Layer_1" xmlns="http://www.w3.org/2000/svg" xmlns:xlink="http://www.w3.org/1999/xlink" x="0px" y="0px"
	 viewBox="0 0 512 512" style="enable-background:new 0 0 512 512;" xml:space="preserve">
<path style="fill:#E65F58;" d="M287.345,185.89l-7.48-1.528l0.153-10.838c0-62.236-37.4-118.062-93.208-142.476
	c8.442,20.732,12.838,43.055,12.838,65.648c0,49.366-32.59,96.71-56.393,131.283c-3.708,5.39-7.251,10.532-10.474,15.396
	c-21.195,27.767-32.208,60.371-32.208,94.786c0,85.701,69.725,155.426,155.426,155.426c41.518,0,80.55-16.169,109.904-45.523
	c29.354-29.358,45.523-68.39,45.523-109.904C411.426,264.646,359.242,200.608,287.345,185.89z M256,475.175
	c-45.685,0-82.856-37.171-82.856-82.856s37.171-82.856,82.856-82.856s82.856,37.171,82.856,82.856S301.685,475.175,256,475.175z"/>
<path style="fill:#E5D85A;" d="M256,327.876c-35.535,0-64.443,28.909-64.443,64.443s28.909,64.443,64.443,64.443
	s64.443-28.909,64.443-64.443S291.535,327.876,256,327.876z"/>
<g>
	<path style="fill:#314E55;" d="M298.385,169.523C296.628,93.325,244.811,26.427,171.162,5.997L149.549,0l11.166,19.451
		c13.423,23.384,20.521,50.099,20.521,77.246c0,43.639-29.466,86.447-53.142,120.84c-3.776,5.484-7.377,10.716-10.299,15.158
		c-23.312,30.504-35.634,66.974-35.634,105.467C82.161,434.017,160.144,512,256,512c46.44,0,90.093-18.084,122.922-50.917
		c32.833-32.833,50.917-76.486,50.917-122.922C429.839,258.466,374.997,188.727,298.385,169.523z M365.903,448.065
		C336.55,477.418,297.518,493.588,256,493.588c-85.701,0-155.426-69.725-155.426-155.427c0-34.415,11.013-67.019,32.208-94.786
		c3.223-4.864,6.765-10.006,10.474-15.396c23.802-34.573,56.393-81.916,56.393-131.283c0-22.593-4.396-44.916-12.838-65.648
		c55.808,24.413,93.208,80.24,93.208,142.476l-0.153,10.838l7.48,1.528c71.896,14.717,124.081,78.756,124.081,152.271
		C411.426,379.674,395.257,418.706,365.903,448.065z"/>
	<path style="fill:#314E55;" d="M256,309.464c-45.685,0-82.856,37.171-82.856,82.856s37.171,82.856,82.856,82.856
		s82.856-37.171,82.856-82.856S301.685,309.464,256,309.464z M256,456.763c-35.535,0-64.443-28.909-64.443-64.443
		s28.909-64.443,64.443-64.443s64.443,28.909,64.443,64.443S291.535,456.763,256,456.763z"/>
</g>
<g>
</g>
<g>
</g>
<g>
</g>
<g>
</g>
<g>
</g>
<g>
</g>
<g>
</g>
<g>
</g>
<g>
</g>
<g>
</g>
<g>
</g>
<g>
</g>
<g>
</g>
<g>
</g>
<g>
</g>
</svg>
